# xmcd
#
# Track frame offsets: 
#        150
#        3325
#        21177
#        42455
#        57892
#        82120
#        105538
#        124644
#        128115
#        152095
#        175743
#        196504
#        198376
#
# Disc length: 3036 seconds
#
# Revision: 4
# Processed by: cddbd v1.5.2PL0 Copyright (c) Steve Scherf et al.
# Submitted via: ExactAudioCopyFreeDBPlugin 1.0
#
DISCID=a00bda0d
DTITLE=One-T - The One-T ODC
DYEAR=2003
DGENRE=Hip-Hop
TTITLE0=Overture
TTITLE1=Music Is The One-T odc
TTITLE2=One-T's Army
TTITLE3=Bein' A Star
TTITLE4=Acidlab
TTITLE5=The Magic Key
TTITLE6=Cool-T's Paradise
TTITLE7=Interlude
TTITLE8=The Travoltino Theme (I See A House)
TTITLE9=The Travoltino Club (One-T's Gonna Shine)
TTITLE10=What's The Deal With Nine-T
TTITLE11=Interlude
TTITLE12=Each Day Is Gettin' Crazier Than The Last
EXTD=
EXTT0=
EXTT1=
EXTT2=
EXTT3=
EXTT4=
EXTT5=
EXTT6=
EXTT7=
EXTT8=
EXTT9=
EXTT10=
EXTT11=
EXTT12=
PLAYORDER=
